    <svg
      width="32"
      height="32"
      viewBox="0 0 32 32"
      fill="none"
      xmlns="http://www.w3.org/2000/svg"
    >
      <title>Arrow left</title>
      <path
        d="M54.5038 99.6545C55.7113 98.4263 56.3437 96.8631 56.4007 94.9649C56.4534 93.0667 55.876 91.5035 54.6685 90.2753L22.3942 57.4479H95.9993C97.8655 57.4479 99.431 56.8048 100.696 55.5185C101.956 54.2366 102.586 52.6466 102.586 50.7484C102.586 48.8503 101.956 47.258 100.696 45.9717C99.431 44.6899 97.8655 44.049 95.9993 44.049H22.3942L54.6685 11.2216C55.876 9.99337 56.4534 8.43016 56.4007 6.53198C56.3437 4.6338 55.7113 3.07059 54.5038 1.84235C53.2963 0.614115 51.7594 0 49.8932 0C48.027 0 46.4901 0.614115 45.2826 1.84235L1.81105 46.0588C1.15239 46.6171 0.684738 47.3139 0.408096 48.149C0.135857 48.9887 -0.000267029 49.8552 -0.000267029 50.7484C-0.000267029 51.6417 0.135857 52.4791 0.408096 53.2607C0.684738 54.0423 1.15239 54.7681 1.81105 55.4381L45.2826 99.6545C46.4901 100.883 48.027 101.497 49.8932 101.497C51.7594 101.497 53.2963 100.883 54.5038 99.6545Z"
        fill="#C4542B"
      />
    </svg>
