<svg width="103" height="102" viewBox="0 0 103 102" fill="none" xmlns="http://www.w3.org/2000/svg">
<path d="M48.0821 99.6545C46.8746 98.4263 46.2423 96.8631 46.1852 94.9649C46.1325 93.0667 46.7099 91.5035 47.9175 90.2753L80.1918 57.4479H6.58659C4.72039 57.4479 3.15498 56.8048 1.89035 55.5185C0.630119 54.2366 0 52.6466 0 50.7484C0 48.8503 0.630119 47.258 1.89035 45.9717C3.15498 44.6899 4.72039 44.049 6.58659 44.049H80.1918L47.9175 11.2216C46.7099 9.99336 46.1325 8.43016 46.1852 6.53198C46.2423 4.6338 46.8746 3.07059 48.0821 1.84235C49.2897 0.614115 50.8266 0 52.6928 0C54.559 0 56.0958 0.614115 57.3034 1.84235L100.775 46.0588C101.434 46.6171 101.901 47.3138 102.178 48.149C102.45 48.9887 102.586 49.8552 102.586 50.7484C102.586 51.6417 102.45 52.4791 102.178 53.2607C101.901 54.0423 101.434 54.7681 100.775 55.4381L57.3034 99.6545C56.0958 100.883 54.559 101.497 52.6928 101.497C50.8266 101.497 49.2897 100.883 48.0821 99.6545Z" fill="#C4542B"/>
</svg>
